<mxfile host="Electron" modified="2024-02-09T19:10:26.395Z" agent="Mozilla/5.0 (X11; Linux x86_64) AppleWebKit/537.36 (KHTML, like Gecko) draw.io/23.0.2 Chrome/120.0.6099.109 Electron/28.1.0 Safari/537.36" etag="KrPSpnKCeObT-tZfsFck" version="23.0.2" type="device">
  <diagram id="4IggmmZwFg4Mkd-BrONc" name="Страница 1">
    <mxGraphModel dx="1237" dy="676" grid="1" gridSize="10" guides="1" tooltips="1" connect="1" arrows="1" fold="1" page="1" pageScale="1" pageWidth="600" pageHeight="300" math="0" shadow="0">
      <root>
        <mxCell id="0" />
        <mxCell id="1" parent="0" />
        <mxCell id="mO8OnA1qE3qP-K9DJvxi-1" value="" style="rounded=1;whiteSpace=wrap;html=1;strokeColor=#0000FF;dashed=1;fillColor=none;" parent="1" vertex="1">
          <mxGeometry x="760" width="140" height="270" as="geometry" />
        </mxCell>
        <mxCell id="Nk4rxEVuKk_PFZayKbhd-2" value="&lt;p style=&quot;line-height: 100%&quot;&gt;&lt;font&gt;&lt;span style=&quot;font-size: 14px&quot;&gt;db-01&lt;br&gt;&lt;/span&gt;&lt;/font&gt;&lt;span style=&quot;font-size: 10px&quot;&gt;percona-server&lt;/span&gt;&lt;br&gt;&lt;/p&gt;" style="rounded=1;whiteSpace=wrap;html=1;strokeColor=#0000FF;" parent="1" vertex="1">
          <mxGeometry x="580" y="67.5" width="120" height="60" as="geometry" />
        </mxCell>
        <mxCell id="Nk4rxEVuKk_PFZayKbhd-4" value="&lt;p style=&quot;line-height: 100%&quot;&gt;&lt;span style=&quot;font-size: 14px&quot;&gt;be-01&lt;/span&gt;&lt;br&gt;&lt;span style=&quot;font-size: 10px&quot;&gt;consul, proxysql, ceph, &lt;font color=&quot;#ff0000&quot;&gt;wordpress&lt;/font&gt;&lt;/span&gt;&lt;br&gt;&lt;/p&gt;" style="rounded=1;whiteSpace=wrap;html=1;strokeColor=#0000FF;" parent="1" vertex="1">
          <mxGeometry x="172" y="30" width="120" height="60" as="geometry" />
        </mxCell>
        <mxCell id="Nk4rxEVuKk_PFZayKbhd-6" value="&lt;p style=&quot;line-height: 100%&quot;&gt;&lt;span style=&quot;font-size: 14px&quot;&gt;lb-01&lt;/span&gt;&lt;br&gt;&lt;span style=&quot;font-size: 10px&quot;&gt;&lt;font color=&quot;#ff0000&quot;&gt;nginx (upstream)&lt;/font&gt;, consul, consul-template&lt;/span&gt;&lt;/p&gt;" style="rounded=1;whiteSpace=wrap;html=1;strokeColor=#0000FF;" parent="1" vertex="1">
          <mxGeometry y="30" width="120" height="60" as="geometry" />
        </mxCell>
        <mxCell id="mSui1N4ihssYe-xkSYdv-1" value="&lt;p style=&quot;line-height: 100%&quot;&gt;&lt;span style=&quot;font-size: 14px&quot;&gt;be-02&lt;/span&gt;&lt;br&gt;&lt;span style=&quot;font-size: 10px&quot;&gt;consul, proxysql, ceph, &lt;font color=&quot;#ff0000&quot;&gt;wordpress&lt;/font&gt;&lt;/span&gt;&lt;br&gt;&lt;/p&gt;" style="rounded=1;whiteSpace=wrap;html=1;strokeColor=#0000FF;" parent="1" vertex="1">
          <mxGeometry x="172" y="190" width="120" height="60" as="geometry" />
        </mxCell>
        <mxCell id="mSui1N4ihssYe-xkSYdv-4" value="&lt;font style=&quot;font-size: 10px&quot;&gt;subnet&lt;br&gt;10.10.10.0/24&lt;/font&gt;" style="edgeLabel;html=1;align=center;verticalAlign=middle;resizable=0;points=[];fontSize=8;fontColor=#777777;" parent="1" vertex="1" connectable="0">
          <mxGeometry x="470.0024406121316" y="-50.004547989207566" as="geometry">
            <mxPoint x="-5" y="-2" as="offset" />
          </mxGeometry>
        </mxCell>
        <mxCell id="-WRoGn8kwcu14axJvP3w-1" value="&lt;p style=&quot;line-height: 100%&quot;&gt;&lt;span style=&quot;font-size: 14px&quot;&gt;lb-02&lt;/span&gt;&lt;br&gt;&lt;span style=&quot;font-size: 10px&quot;&gt;&lt;font color=&quot;#ff0000&quot;&gt;nginx (upstream)&lt;/font&gt;, consul, consul-template&lt;/span&gt;&lt;br&gt;&lt;/p&gt;" style="rounded=1;whiteSpace=wrap;html=1;strokeColor=#0000FF;" parent="1" vertex="1">
          <mxGeometry y="190" width="120" height="60" as="geometry" />
        </mxCell>
        <mxCell id="-WRoGn8kwcu14axJvP3w-3" value="" style="endArrow=classic;startArrow=classic;html=1;exitX=0.5;exitY=0;exitDx=0;exitDy=0;entryX=0.5;entryY=1;entryDx=0;entryDy=0;" parent="1" source="-WRoGn8kwcu14axJvP3w-1" target="Nk4rxEVuKk_PFZayKbhd-6" edge="1">
          <mxGeometry width="50" height="50" relative="1" as="geometry">
            <mxPoint x="90" y="120" as="sourcePoint" />
            <mxPoint x="140" y="70" as="targetPoint" />
          </mxGeometry>
        </mxCell>
        <mxCell id="-WRoGn8kwcu14axJvP3w-4" value="" style="endArrow=oval;html=1;startArrow=classic;startFill=1;endFill=1;" parent="1" edge="1">
          <mxGeometry width="50" height="50" relative="1" as="geometry">
            <mxPoint y="138" as="sourcePoint" />
            <mxPoint x="60" y="137.71" as="targetPoint" />
          </mxGeometry>
        </mxCell>
        <mxCell id="-WRoGn8kwcu14axJvP3w-5" value="" style="endArrow=classic;startArrow=classic;html=1;exitX=1;exitY=0.5;exitDx=0;exitDy=0;entryX=0;entryY=0.5;entryDx=0;entryDy=0;" parent="1" source="-WRoGn8kwcu14axJvP3w-1" target="mSui1N4ihssYe-xkSYdv-1" edge="1">
          <mxGeometry width="50" height="50" relative="1" as="geometry">
            <mxPoint x="120" y="120" as="sourcePoint" />
            <mxPoint x="170" y="160" as="targetPoint" />
          </mxGeometry>
        </mxCell>
        <mxCell id="-WRoGn8kwcu14axJvP3w-6" value="" style="endArrow=classic;startArrow=classic;html=1;entryX=0;entryY=0.5;entryDx=0;entryDy=0;rounded=1;exitX=1;exitY=0.5;exitDx=0;exitDy=0;" parent="1" source="-WRoGn8kwcu14axJvP3w-1" target="Nk4rxEVuKk_PFZayKbhd-4" edge="1">
          <mxGeometry width="50" height="50" relative="1" as="geometry">
            <mxPoint x="120" y="160" as="sourcePoint" />
            <mxPoint x="160" y="60" as="targetPoint" />
          </mxGeometry>
        </mxCell>
        <mxCell id="-WRoGn8kwcu14axJvP3w-7" value="" style="endArrow=classic;dashed=1;html=1;exitX=1;exitY=0.5;exitDx=0;exitDy=0;entryX=0;entryY=0.5;entryDx=0;entryDy=0;startArrow=classic;startFill=0;endFill=0;" parent="1" source="Nk4rxEVuKk_PFZayKbhd-6" target="Nk4rxEVuKk_PFZayKbhd-4" edge="1">
          <mxGeometry width="50" height="50" relative="1" as="geometry">
            <mxPoint x="250" y="120" as="sourcePoint" />
            <mxPoint x="150" y="40" as="targetPoint" />
          </mxGeometry>
        </mxCell>
        <mxCell id="-WRoGn8kwcu14axJvP3w-8" value="" style="endArrow=classic;dashed=1;html=1;exitX=1;exitY=0.5;exitDx=0;exitDy=0;entryX=0;entryY=0.5;entryDx=0;entryDy=0;startArrow=classic;startFill=0;endFill=0;" parent="1" source="Nk4rxEVuKk_PFZayKbhd-6" target="mSui1N4ihssYe-xkSYdv-1" edge="1">
          <mxGeometry width="50" height="50" relative="1" as="geometry">
            <mxPoint x="130" y="40" as="sourcePoint" />
            <mxPoint x="180" y="-10" as="targetPoint" />
          </mxGeometry>
        </mxCell>
        <mxCell id="-WRoGn8kwcu14axJvP3w-9" value="&lt;p style=&quot;line-height: 100%&quot;&gt;&lt;span style=&quot;font-size: 14px&quot;&gt;ceph-01&lt;/span&gt;&lt;br&gt;&lt;span style=&quot;font-size: 10px&quot;&gt;ceph: mon, mgr, mds, osd&lt;/span&gt;&lt;br&gt;&lt;/p&gt;" style="rounded=1;whiteSpace=wrap;html=1;strokeColor=#0000FF;" parent="1" vertex="1">
          <mxGeometry x="410" y="30" width="120" height="60" as="geometry" />
        </mxCell>
        <mxCell id="-WRoGn8kwcu14axJvP3w-12" value="&lt;font style=&quot;font-size: 12px&quot;&gt;LoadBalancer&lt;br&gt;Public IP address&lt;/font&gt;" style="edgeLabel;html=1;align=center;verticalAlign=middle;resizable=0;points=[];fontSize=8;fontColor=#777777;" parent="1" vertex="1" connectable="0">
          <mxGeometry x="-47.99755938786842" y="137.99545201079243" as="geometry">
            <mxPoint x="-1" y="2" as="offset" />
          </mxGeometry>
        </mxCell>
        <mxCell id="q85gnG0CihK2C5Sx0KsL-1" value="&lt;p style=&quot;line-height: 100%&quot;&gt;&lt;font&gt;&lt;span style=&quot;font-size: 14px&quot;&gt;consul-02&lt;br&gt;&lt;/span&gt;&lt;/font&gt;&lt;span style=&quot;font-size: 10px&quot;&gt;consul-server&lt;/span&gt;&lt;/p&gt;" style="rounded=1;whiteSpace=wrap;html=1;strokeColor=#0000FF;" parent="1" vertex="1">
          <mxGeometry x="770" y="108" width="120" height="60" as="geometry" />
        </mxCell>
        <mxCell id="q85gnG0CihK2C5Sx0KsL-2" value="&lt;p style=&quot;line-height: 100%&quot;&gt;&lt;font&gt;&lt;span style=&quot;font-size: 14px&quot;&gt;consul-01&lt;br&gt;&lt;/span&gt;&lt;/font&gt;&lt;span style=&quot;font-size: 10px&quot;&gt;consul-server&lt;/span&gt;&lt;/p&gt;" style="rounded=1;whiteSpace=wrap;html=1;strokeColor=#0000FF;" parent="1" vertex="1">
          <mxGeometry x="770" y="30" width="120" height="60" as="geometry" />
        </mxCell>
        <mxCell id="q85gnG0CihK2C5Sx0KsL-3" value="&lt;p style=&quot;line-height: 100%&quot;&gt;&lt;font&gt;&lt;span style=&quot;font-size: 14px&quot;&gt;consul-03&lt;br&gt;&lt;/span&gt;&lt;/font&gt;&lt;span style=&quot;font-size: 10px;&quot;&gt;consul-server&lt;/span&gt;&lt;/p&gt;" style="rounded=1;whiteSpace=wrap;html=1;strokeColor=#0000FF;" parent="1" vertex="1">
          <mxGeometry x="770" y="190" width="120" height="60" as="geometry" />
        </mxCell>
        <mxCell id="q85gnG0CihK2C5Sx0KsL-4" value="" style="endArrow=classic;html=1;exitX=0.5;exitY=0;exitDx=0;exitDy=0;entryX=0;entryY=0.5;entryDx=0;entryDy=0;strokeColor=#00CC00;startArrow=classic;startFill=1;" parent="1" target="q85gnG0CihK2C5Sx0KsL-2" edge="1">
          <mxGeometry width="50" height="50" relative="1" as="geometry">
            <mxPoint x="220" y="30" as="sourcePoint" />
            <mxPoint x="280" y="-40" as="targetPoint" />
            <Array as="points">
              <mxPoint x="250" y="-40" />
              <mxPoint x="720" y="-40" />
            </Array>
          </mxGeometry>
        </mxCell>
        <mxCell id="q85gnG0CihK2C5Sx0KsL-7" value="" style="endArrow=classic;html=1;exitX=0.5;exitY=1;exitDx=0;exitDy=0;entryX=0;entryY=0.5;entryDx=0;entryDy=0;strokeColor=#00CC00;startArrow=classic;startFill=1;" parent="1" target="q85gnG0CihK2C5Sx0KsL-2" edge="1">
          <mxGeometry width="50" height="50" relative="1" as="geometry">
            <mxPoint x="220" y="250" as="sourcePoint" />
            <mxPoint x="748" y="390" as="targetPoint" />
            <Array as="points">
              <mxPoint x="240" y="300" />
              <mxPoint x="720" y="300" />
            </Array>
          </mxGeometry>
        </mxCell>
        <mxCell id="q85gnG0CihK2C5Sx0KsL-8" value="" style="endArrow=classic;html=1;exitX=0.5;exitY=0;exitDx=0;exitDy=0;strokeColor=#00CC00;entryX=0;entryY=0.5;entryDx=0;entryDy=0;startArrow=classic;startFill=1;" parent="1" target="q85gnG0CihK2C5Sx0KsL-2" edge="1">
          <mxGeometry width="50" height="50" relative="1" as="geometry">
            <mxPoint x="392" y="30" as="sourcePoint" />
            <mxPoint x="710" y="70" as="targetPoint" />
            <Array as="points">
              <mxPoint x="410" y="-30" />
              <mxPoint x="710" y="-30" />
            </Array>
          </mxGeometry>
        </mxCell>
        <mxCell id="q85gnG0CihK2C5Sx0KsL-9" value="" style="endArrow=classic;html=1;exitX=0.5;exitY=1;exitDx=0;exitDy=0;strokeColor=#00CC00;entryX=0;entryY=0.5;entryDx=0;entryDy=0;startArrow=classic;startFill=1;" parent="1" target="q85gnG0CihK2C5Sx0KsL-2" edge="1">
          <mxGeometry width="50" height="50" relative="1" as="geometry">
            <mxPoint x="392" y="250" as="sourcePoint" />
            <mxPoint x="720" y="110" as="targetPoint" />
            <Array as="points">
              <mxPoint x="400" y="290" />
              <mxPoint x="710" y="290" />
            </Array>
          </mxGeometry>
        </mxCell>
        <mxCell id="q85gnG0CihK2C5Sx0KsL-12" value="" style="endArrow=classic;html=1;exitX=0.5;exitY=0;exitDx=0;exitDy=0;entryX=0;entryY=0.5;entryDx=0;entryDy=0;strokeColor=#00CC00;dashed=1;endFill=0;" parent="1" target="q85gnG0CihK2C5Sx0KsL-1" edge="1">
          <mxGeometry width="50" height="50" relative="1" as="geometry">
            <mxPoint x="220" y="30" as="sourcePoint" />
            <mxPoint x="760" y="133" as="targetPoint" />
            <Array as="points">
              <mxPoint x="250" y="-40" />
              <mxPoint x="720" y="-40" />
            </Array>
          </mxGeometry>
        </mxCell>
        <mxCell id="q85gnG0CihK2C5Sx0KsL-14" value="" style="endArrow=classic;html=1;exitX=0.5;exitY=0;exitDx=0;exitDy=0;entryX=0;entryY=0.5;entryDx=0;entryDy=0;strokeColor=#00CC00;dashed=1;endFill=0;" parent="1" target="q85gnG0CihK2C5Sx0KsL-3" edge="1">
          <mxGeometry width="50" height="50" relative="1" as="geometry">
            <mxPoint x="220" y="30" as="sourcePoint" />
            <mxPoint x="760" y="210" as="targetPoint" />
            <Array as="points">
              <mxPoint x="250" y="-40" />
              <mxPoint x="720" y="-40" />
            </Array>
          </mxGeometry>
        </mxCell>
        <mxCell id="q85gnG0CihK2C5Sx0KsL-15" value="" style="endArrow=classic;html=1;exitX=0.5;exitY=0;exitDx=0;exitDy=0;strokeColor=#00CC00;dashed=1;endFill=0;entryX=0;entryY=0.5;entryDx=0;entryDy=0;" parent="1" target="q85gnG0CihK2C5Sx0KsL-1" edge="1">
          <mxGeometry width="50" height="50" relative="1" as="geometry">
            <mxPoint x="392" y="30" as="sourcePoint" />
            <mxPoint x="700" y="90" as="targetPoint" />
            <Array as="points">
              <mxPoint x="410" y="-30" />
              <mxPoint x="710" y="-30" />
            </Array>
          </mxGeometry>
        </mxCell>
        <mxCell id="q85gnG0CihK2C5Sx0KsL-16" value="" style="endArrow=classic;html=1;exitX=0.5;exitY=0;exitDx=0;exitDy=0;strokeColor=#00CC00;dashed=1;endFill=0;entryX=0;entryY=0.5;entryDx=0;entryDy=0;" parent="1" target="q85gnG0CihK2C5Sx0KsL-3" edge="1">
          <mxGeometry width="50" height="50" relative="1" as="geometry">
            <mxPoint x="392" y="30" as="sourcePoint" />
            <mxPoint x="730" y="200" as="targetPoint" />
            <Array as="points">
              <mxPoint x="410" y="-30" />
              <mxPoint x="710" y="-30" />
            </Array>
          </mxGeometry>
        </mxCell>
        <mxCell id="q85gnG0CihK2C5Sx0KsL-21" value="" style="endArrow=classic;html=1;exitX=0.5;exitY=1;exitDx=0;exitDy=0;strokeColor=#00CC00;dashed=1;endFill=0;entryX=0;entryY=0.5;entryDx=0;entryDy=0;" parent="1" target="q85gnG0CihK2C5Sx0KsL-1" edge="1">
          <mxGeometry width="50" height="50" relative="1" as="geometry">
            <mxPoint x="392" y="250" as="sourcePoint" />
            <mxPoint x="780" y="280" as="targetPoint" />
            <Array as="points">
              <mxPoint x="400" y="290" />
              <mxPoint x="710" y="290" />
            </Array>
          </mxGeometry>
        </mxCell>
        <mxCell id="q85gnG0CihK2C5Sx0KsL-22" value="" style="endArrow=classic;html=1;exitX=0.5;exitY=1;exitDx=0;exitDy=0;strokeColor=#00CC00;dashed=1;endFill=0;entryX=0;entryY=0.5;entryDx=0;entryDy=0;" parent="1" target="q85gnG0CihK2C5Sx0KsL-3" edge="1">
          <mxGeometry width="50" height="50" relative="1" as="geometry">
            <mxPoint x="393" y="250" as="sourcePoint" />
            <mxPoint x="731" y="240" as="targetPoint" />
            <Array as="points">
              <mxPoint x="400" y="290" />
              <mxPoint x="710" y="290" />
            </Array>
          </mxGeometry>
        </mxCell>
        <mxCell id="q85gnG0CihK2C5Sx0KsL-23" value="" style="endArrow=classic;html=1;exitX=0.5;exitY=1;exitDx=0;exitDy=0;strokeColor=#00CC00;dashed=1;endFill=0;entryX=0;entryY=0.5;entryDx=0;entryDy=0;" parent="1" target="q85gnG0CihK2C5Sx0KsL-1" edge="1">
          <mxGeometry width="50" height="50" relative="1" as="geometry">
            <mxPoint x="220" y="250" as="sourcePoint" />
            <mxPoint x="900" y="180" as="targetPoint" />
            <Array as="points">
              <mxPoint x="240" y="300" />
              <mxPoint x="720" y="300" />
            </Array>
          </mxGeometry>
        </mxCell>
        <mxCell id="q85gnG0CihK2C5Sx0KsL-24" value="" style="endArrow=classic;html=1;exitX=0.5;exitY=1;exitDx=0;exitDy=0;strokeColor=#00CC00;dashed=1;endFill=0;entryX=0;entryY=0.5;entryDx=0;entryDy=0;" parent="1" target="q85gnG0CihK2C5Sx0KsL-3" edge="1">
          <mxGeometry width="50" height="50" relative="1" as="geometry">
            <mxPoint x="220" y="250" as="sourcePoint" />
            <mxPoint x="740" y="260" as="targetPoint" />
            <Array as="points">
              <mxPoint x="240" y="300" />
              <mxPoint x="720" y="300" />
            </Array>
          </mxGeometry>
        </mxCell>
        <mxCell id="mO8OnA1qE3qP-K9DJvxi-2" value="&lt;span style=&quot;font-size: 10px;&quot;&gt;&lt;font color=&quot;#0000ff&quot;&gt;consul cluster&lt;/font&gt;&lt;/span&gt;" style="edgeLabel;html=1;align=center;verticalAlign=middle;resizable=0;points=[];fontSize=8;fontColor=#777777;" parent="1" vertex="1" connectable="0">
          <mxGeometry x="830.0024406121315" y="19.995452010792434" as="geometry">
            <mxPoint x="1" as="offset" />
          </mxGeometry>
        </mxCell>
        <mxCell id="qe6mRY853hemsALuHRrN-1" value="&lt;p style=&quot;line-height: 100%&quot;&gt;&lt;font&gt;&lt;span style=&quot;font-size: 14px&quot;&gt;db-02&lt;br&gt;&lt;/span&gt;&lt;/font&gt;&lt;span style=&quot;font-size: 10px&quot;&gt;percona-server&lt;/span&gt;&lt;br&gt;&lt;/p&gt;" style="rounded=1;whiteSpace=wrap;html=1;strokeColor=#0000FF;" vertex="1" parent="1">
          <mxGeometry x="580" y="142.5" width="120" height="60" as="geometry" />
        </mxCell>
        <mxCell id="qe6mRY853hemsALuHRrN-3" value="&lt;p style=&quot;line-height: 100%&quot;&gt;&lt;span style=&quot;font-size: 14px&quot;&gt;ceph-02&lt;/span&gt;&lt;br&gt;&lt;span style=&quot;font-size: 10px&quot;&gt;ceph: mon, mgr, mds, osd&lt;/span&gt;&lt;br&gt;&lt;/p&gt;" style="rounded=1;whiteSpace=wrap;html=1;strokeColor=#0000FF;" vertex="1" parent="1">
          <mxGeometry x="410" y="108" width="120" height="60" as="geometry" />
        </mxCell>
        <mxCell id="qe6mRY853hemsALuHRrN-4" value="&lt;p style=&quot;line-height: 100%&quot;&gt;&lt;span style=&quot;font-size: 14px&quot;&gt;ceph-03&lt;/span&gt;&lt;br&gt;&lt;span style=&quot;font-size: 10px&quot;&gt;ceph: mon, mgr, mds, osd&lt;/span&gt;&lt;br&gt;&lt;/p&gt;" style="rounded=1;whiteSpace=wrap;html=1;strokeColor=#0000FF;" vertex="1" parent="1">
          <mxGeometry x="410" y="190" width="120" height="60" as="geometry" />
        </mxCell>
        <mxCell id="qe6mRY853hemsALuHRrN-5" value="" style="rounded=1;whiteSpace=wrap;html=1;strokeColor=#0000FF;dashed=1;fillColor=none;" vertex="1" parent="1">
          <mxGeometry x="400" y="3" width="140" height="270" as="geometry" />
        </mxCell>
        <mxCell id="qe6mRY853hemsALuHRrN-6" value="" style="rounded=1;whiteSpace=wrap;html=1;strokeColor=#0000FF;dashed=1;fillColor=none;" vertex="1" parent="1">
          <mxGeometry x="570" width="140" height="270" as="geometry" />
        </mxCell>
        <mxCell id="qe6mRY853hemsALuHRrN-7" value="&lt;span style=&quot;font-size: 10px;&quot;&gt;&lt;font color=&quot;#0000ff&quot;&gt;percona xtradb cluster&lt;/font&gt;&lt;/span&gt;" style="edgeLabel;html=1;align=center;verticalAlign=middle;resizable=0;points=[];fontSize=8;fontColor=#777777;" vertex="1" connectable="0" parent="1">
          <mxGeometry x="640.0024406121315" y="19.995452010792434" as="geometry">
            <mxPoint x="1" as="offset" />
          </mxGeometry>
        </mxCell>
        <mxCell id="qe6mRY853hemsALuHRrN-8" value="&lt;span style=&quot;font-size: 10px;&quot;&gt;&lt;font color=&quot;#0000ff&quot;&gt;ceph cluster&lt;/font&gt;&lt;/span&gt;" style="edgeLabel;html=1;align=center;verticalAlign=middle;resizable=0;points=[];fontSize=8;fontColor=#777777;" vertex="1" connectable="0" parent="1">
          <mxGeometry x="460.0024406121315" y="19.995452010792434" as="geometry">
            <mxPoint x="1" as="offset" />
          </mxGeometry>
        </mxCell>
      </root>
    </mxGraphModel>
  </diagram>
</mxfile>
